<?xml version="1.0" encoding="UTF-8"?>
<svg version="1.1" xmlns="http://www.w3.org/2000/svg" width="225" height="225">
<path d="M0 0 C74.25 0 148.5 0 225 0 C225 74.25 225 148.5 225 225 C150.75 225 76.5 225 0 225 C0 150.75 0 76.5 0 0 Z " fill="#FEFEFE" transform="translate(0,0)"/>
<path d="M0 0 C5.05354852 2.86085428 7.62996221 5.76557273 9.84765625 11.125 C10.18173037 14.8666301 9.94538416 17.73408835 9.03515625 21.375 C8.78792663 26.31959239 10.51502195 29.41611753 12.71875 33.76953125 C13.84765625 36.125 13.84765625 36.125 13.84765625 38.125 C14.59015625 37.795 15.33265625 37.465 16.09765625 37.125 C26.41146874 34.37465 34.45722903 36.46308577 43.84765625 41.125 C44.25757813 40.5475 44.6675 39.97 45.08984375 39.375 C45.62867188 38.6325 46.1675 37.89 46.72265625 37.125 C47.25632812 36.3825 47.79 35.64 48.33984375 34.875 C48.83742188 34.2975 49.335 33.72 49.84765625 33.125 C50.50765625 33.125 51.16765625 33.125 51.84765625 33.125 C50.72313898 36.0969385 49.62471834 38.45940687 47.84765625 41.125 C48.19051823 44.49876193 49.76808504 46.67166271 51.72265625 49.375 C55.77318329 55.30473791 58.40179412 60.73649509 57.84765625 68.125 C58.89953125 68.104375 59.95140625 68.08375 61.03515625 68.0625 C64.17470529 68.11396802 66.81649021 68.39017187 69.84765625 69.125 C69.84765625 69.785 69.84765625 70.445 69.84765625 71.125 C65.68627362 71.20659574 61.90040785 71.10748524 57.84765625 70.125 C57.75484375 71.795625 57.75484375 71.795625 57.66015625 73.5 C56.51112296 82.27302444 52.21308592 88.49728008 45.421875 93.9453125 C44.90238281 94.33460938 44.38289063 94.72390625 43.84765625 95.125 C44.26814185 97.64791359 44.63617559 99.74780688 45.89453125 101.9921875 C47.28156618 105.09596238 47.11176543 107.87085113 47.09765625 111.25 C47.10539062 113.11011719 47.10539062 113.11011719 47.11328125 115.0078125 C46.84765625 118.125 46.84765625 118.125 44.84765625 120.125 C39.6137416 119.62494446 35.67065567 115.75567597 32.28125 112.01220703 C26.25767693 104.08267368 20.49508853 92.98978485 18.84765625 83.125 C18.29078125 83.32996094 17.73390625 83.53492188 17.16015625 83.74609375 C16.39703125 84.01550781 15.63390625 84.28492188 14.84765625 84.5625 C14.10515625 84.82933594 13.36265625 85.09617187 12.59765625 85.37109375 C-0.72761507 89.0241866 -19.66641479 89.36796448 -32.15234375 83.125 C-32.3946875 83.92035156 -32.63703125 84.71570313 -32.88671875 85.53515625 C-34.46564587 90.01365633 -36.39237868 94.26359478 -38.40234375 98.5625 C-38.77230469 99.38298828 -39.14226562 100.20347656 -39.5234375 101.04882812 C-43.37017453 109.2740184 -48.29286251 115.46752964 -56.15234375 120.125 C-58.36328125 119.75 -58.36328125 119.75 -60.15234375 119.125 C-62.54378441 104.26706772 -56.23607633 93.34400529 -49.36743164 80.5065918 C-48.05373227 78.07826807 -48.05373227 78.07826807 -47.15234375 75.125 C-47.71566406 74.86589844 -48.27898437 74.60679687 -48.859375 74.33984375 C-57.46190324 69.78211584 -64.91799856 62.26731474 -70.15234375 54.125 C-70.15234375 52.805 -70.15234375 51.485 -70.15234375 50.125 C-67.88671875 47.94921875 -67.88671875 47.94921875 -64.90234375 45.8125 C-63.9278125 45.09449219 -62.95328125 44.37648437 -61.94921875 43.63671875 C-59.15234375 42.125 -59.15234375 42.125 -57.0625 42.1015625 C-54.36411786 43.54732144 -52.80698776 45.47498785 -50.83984375 47.8125 C-47.19053945 52.02370049 -43.48067411 55.62549886 -39.15234375 59.125 C-38.67925781 58.17882812 -38.20617187 57.23265625 -37.71875 56.2578125 C-37.40349365 55.6285083 -37.0882373 54.9992041 -36.76342773 54.35083008 C-36.05461572 52.93073058 -35.34980111 51.50862991 -34.64868164 50.0847168 C-32.71448542 46.1717967 -30.72111689 42.31696294 -28.58203125 38.51171875 C-24.00282897 30.20367427 -21.17685992 24.55707699 -22.79296875 14.8359375 C-23.34989567 10.63477142 -22.41326377 8.66710804 -20.15234375 5.125 C-14.61338355 -0.26819809 -7.48209188 -3.04172156 0 0 Z " fill="#4285F3" transform="translate(119.15234375,53.875)"/>
<path d="M0 0 C0.66 0 1.32 0 2 0 C0.87548273 2.9719385 -0.22293791 5.33440687 -2 8 C-1.65713802 11.37376193 -0.07957121 13.54666271 1.875 16.25 C5.92552704 22.17973791 8.55413787 27.61149509 8 35 C9.5778125 34.9690625 9.5778125 34.9690625 11.1875 34.9375 C14.32704904 34.98896802 16.96883396 35.26517187 20 36 C20 36.66 20 37.32 20 38 C15.83861737 38.08159574 12.0527516 37.98248524 8 37 C7.9071875 38.670625 7.9071875 38.670625 7.8125 40.375 C6.675281 49.05782073 2.40033115 55.31788964 -4.23046875 60.8203125 C-6 62 -6 62 -8 62 C-15.81735968 46.48704637 -23.50010501 30.92715632 -30.93066406 15.22460938 C-31.8577133 13.29600831 -32.82746924 11.38804694 -33.8046875 9.484375 C-35 7 -35 7 -35 5 C-28.29396255 1.96950395 -21.54504834 1.84775892 -14.55078125 4.12109375 C-11.65154879 5.3322524 -8.81388736 6.60303465 -6 8 C-5.59007812 7.4225 -5.18015625 6.845 -4.7578125 6.25 C-4.21898437 5.5075 -3.68015625 4.765 -3.125 4 C-2.59132812 3.2575 -2.05765625 2.515 -1.5078125 1.75 C-1.01023438 1.1725 -0.51265625 0.595 0 0 Z " fill="#3EDC85" transform="translate(169,87)"/>
<path d="M0 0 C5.05354852 2.86085428 7.62996221 5.76557273 9.84765625 11.125 C10.52864731 16.57292851 9.53485038 20.35739752 6.84765625 25.125 C3.50163327 29.26105618 0.20252261 31.43578979 -5.08984375 32.25 C-10.23064765 32.46126591 -14.08173477 31.28371736 -18.15234375 28.125 C-22.34894077 22.85235246 -23.59935861 18.83022285 -23.15234375 12.125 C-21.13957896 5.87483564 -18.54582215 2.95931265 -12.83984375 -0.125 C-8.28577287 -1.3959035 -4.39330774 -1.7860271 0 0 Z " fill="#0B3144" transform="translate(119.15234375,53.875)"/>
<path d="M0 0 C2.70282902 3.3170386 4.49692744 6.81791816 6.35546875 10.6640625 C6.66196854 11.29734467 6.96846832 11.93062683 7.28425598 12.58309937 C7.92754257 13.91505613 8.56867445 15.24805546 9.20776367 16.58203125 C10.18896156 18.62804769 11.17894684 20.66964174 12.16992188 22.7109375 C12.79479912 24.00755804 13.41916612 25.30442463 14.04296875 26.6015625 C14.61039795 27.78057129 15.17782715 28.95958008 15.76245117 30.17431641 C17 33 17 33 17 35 C11.21147306 36.98463781 6.0317392 37.30429166 -0.0625 37.25 C-0.93455078 37.25773437 -1.80660156 37.26546875 -2.70507812 37.2734375 C-7.53563175 37.25881054 -11.46631047 36.87600946 -16 35 C-15.38779258 31.07929575 -14.17767442 28.00343802 -12.3828125 24.47265625 C-11.85816406 23.43302734 -11.33351563 22.39339844 -10.79296875 21.32226562 C-9.96732422 19.70868164 -9.96732422 19.70868164 -9.125 18.0625 C-8.58230469 16.99064453 -8.03960937 15.91878906 -7.48046875 14.81445312 C-6.4651516 12.80988442 -5.44736649 10.80656237 -4.42626953 8.80493164 C-2.93727143 5.87663668 -1.46621743 2.93975781 0 0 Z " fill="#FBFCFE" transform="translate(112,86)"/>
<path d="M0 0 C2.4375 1.5 2.4375 1.5 4 4 C4.76398394 8.28461098 4.70980107 11.73470244 2.5625 15.5625 C-1.28625412 17.72155719 -4.70439636 17.99950991 -9 17 C-11.75025718 15.2430637 -12.35449951 14.01675089 -14 11 C-14.07144479 6.8562023 -13.68996523 4.84576383 -11.0625 1.625 C-7.11963259 -1.4815016 -4.88477503 -1.09486337 0 0 Z " fill="#F9F9F9" transform="translate(117,61)"/>
<path d="M0 0 C0 0.99 0 1.98 0 3 C-5.04975577 5.88557472 -9.85650646 7.53728301 -15.5 8.875 C-21.87839767 10.44698652 -26.14249779 12.61930782 -31 17 C-32.78512948 18.44561006 -34.57706511 19.88284765 -36.375 21.3125 C-37.62410156 22.32763672 -37.62410156 22.32763672 -38.8984375 23.36328125 C-42.3395897 26.0432864 -44.42392145 26.16059653 -48.75 26.1875 C-50.28914063 26.20876953 -50.28914063 26.20876953 -51.859375 26.23046875 C-55 26 -55 26 -57.859375 25.00390625 C-61.83194701 23.73406669 -65.36017348 23.70634629 -69.5 23.75 C-70.23347656 23.74226563 -70.96695313 23.73453125 -71.72265625 23.7265625 C-76.24181091 23.74273121 -79.71118757 24.46194313 -84 26 C-91.65717897 27.07469179 -96.9751854 26.25975565 -103.2578125 21.703125 C-105.08361634 19.91825847 -106.01349551 18.33913436 -107 16 C-103.55835531 17.52961986 -100.90848242 19.62729066 -98 22 C-95.46887436 23.26556282 -93.64003189 23.16799978 -90.8125 23.1875 C-89.89082031 23.20167969 -88.96914062 23.21585938 -88.01953125 23.23046875 C-84.90044449 23.09863509 -84.90044449 23.09863509 -81.6328125 22.00390625 C-77.70344875 20.91804982 -74.10209999 20.69584857 -70.0625 20.75 C-69.35520752 20.75386719 -68.64791504 20.75773437 -67.91918945 20.76171875 C-64.37965858 20.8205679 -61.09164828 21.01124324 -57.6875 22 C-51.94749061 23.55661272 -46.14888109 24.42715417 -40.578125 21.90234375 C-36.72086702 19.40842695 -33.3844438 16.46572481 -30 13.375 C-23.49653086 7.56284451 -16.20156395 5.59848121 -7.796875 3.80859375 C-4.82074765 2.94817705 -2.57767868 1.69806935 0 0 Z " fill="#CFCFCF" transform="translate(182,191)"/>
<path d="M0 0 C2.9375 0.875 2.9375 0.875 4.9375 3.875 C5.1328125 7.23046875 5.1328125 7.23046875 5.0625 11.0625 C5.04445313 12.33480469 5.02640625 13.60710938 5.0078125 14.91796875 C4.97300781 16.38169922 4.97300781 16.38169922 4.9375 17.875 C1.3075 17.875 -2.3225 17.875 -6.0625 17.875 C-6.1434723 15.43683415 -6.20296972 13.00135616 -6.25 10.5625 C-6.27513672 9.87220703 -6.30027344 9.18191406 -6.32617188 8.47070312 C-6.39990519 3.38310427 -6.39990519 3.38310427 -4.7421875 0.88671875 C-3.0625 -0.125 -3.0625 -0.125 0 0 Z " fill="#4486F3" transform="translate(113.0625,36.125)"/>
<path d="M0 0 C1.010625 0.5775 2.02125 1.155 3.0625 1.75 C7.06815126 3.78495652 11.15702138 4.88395736 15.5 5.9375 C22.6508404 7.70404333 28.79352557 9.69028835 33 16 C30.51112868 14.77454266 28.10513093 13.49347034 25.6875 12.125 C20.59401739 9.53509359 15.11765797 8.40242823 9.5859375 7.125 C5.79483751 5.9356353 3.11415626 4.45299693 0 2 C0 1.34 0 0.68 0 0 Z " fill="#CECECE" transform="translate(42,191)"/>
<path d="M0 0 C0.99 0.33 1.98 0.66 3 1 C2.67 2.65 2.34 4.3 2 6 C0.68 5.67 -0.64 5.34 -2 5 C-1.125 1.125 -1.125 1.125 0 0 Z " fill="#EBFAF1" transform="translate(164,126)"/>
<path d="M0 0 C1.98 0.495 1.98 0.495 4 1 C4 2.32 4 3.64 4 5 C2.35 4.67 0.7 4.34 -1 4 C-0.67 2.68 -0.34 1.36 0 0 Z " fill="#F4FCF7" transform="translate(150,100)"/>
</svg>
