<?xml version="1.0" encoding="UTF-8"?>
<svg version="1.1" xmlns="http://www.w3.org/2000/svg" width="225" height="225">
<path d="M0 0 C74.25 0 148.5 0 225 0 C225 74.25 225 148.5 225 225 C150.75 225 76.5 225 0 225 C0 150.75 0 76.5 0 0 Z " fill="#23A8F2" transform="translate(0,0)"/>
<path d="M0 0 C2.65519098 2.20593314 3.84184961 4.02611251 4.39831543 7.45281982 C4.59792387 10.58661905 4.6592998 13.69575142 4.671875 16.8359375 C4.6918454 18.56500839 4.6918454 18.56500839 4.71221924 20.32901001 C4.73244871 22.76484809 4.741854 25.20079675 4.74121094 27.63671875 C4.7499554 31.35603183 4.82259051 35.07058989 4.8984375 38.7890625 C4.91017531 41.15883798 4.91811311 43.52863594 4.921875 45.8984375 C4.95061707 47.00593353 4.97935913 48.11342957 5.00897217 49.25448608 C4.91975249 56.82640428 4.91975249 56.82640428 2.24667358 60.23722839 C0.24288281 62.0103872 -1.76761258 63.52988403 -4 65 C-4.84304687 65.64066406 -5.68609375 66.28132813 -6.5546875 66.94140625 C-7.32039062 67.47636719 -8.08609375 68.01132813 -8.875 68.5625 C-14.89989185 72.86599418 -20.72085208 77.41492021 -26.54248047 81.98852539 C-39.31956355 92 -39.31956355 92 -42 92 C-42 92.66 -42 93.32 -42 94 C-43.59381506 95.29590571 -45.25324782 96.51152694 -46.9375 97.6875 C-52.07162091 101.32527738 -57.06351272 105.09956561 -62 109 C-57.99926724 113.22733677 -53.64929391 116.69753221 -49 120.1875 C-47.46989907 121.34615213 -45.93995249 122.50500811 -44.41015625 123.6640625 C-43.65879395 124.23157227 -42.90743164 124.79908203 -42.13330078 125.38378906 C-39.21981401 127.59107705 -36.32877733 129.82619288 -33.4375 132.0625 C-28.65365487 135.74743439 -23.83554519 139.38323943 -19 143 C-13.85507924 146.84924552 -8.72359889 150.71453615 -3.625 154.625 C-2.06652344 155.81996094 -2.06652344 155.81996094 -0.4765625 157.0390625 C2 159 2 159 4 161 C4.24723816 163.18771362 4.24723816 163.18771362 4.24291992 165.93701172 C4.24599655 166.96502899 4.24907318 167.99304626 4.25224304 169.05221558 C4.24146477 170.72406418 4.24146477 170.72406418 4.23046875 172.4296875 C4.23001053 173.57156525 4.22955231 174.71344299 4.2290802 175.8899231 C4.22605454 178.30927568 4.21815894 180.72862626 4.20581055 183.14794922 C4.18761 186.8526093 4.18530045 190.55701873 4.18554688 194.26171875 C4.18062959 196.60937716 4.17480035 198.95703388 4.16796875 201.3046875 C4.16685593 202.41520477 4.1657431 203.52572205 4.16459656 204.66989136 C4.15821671 205.70421295 4.15183685 206.73853455 4.14526367 207.80419922 C4.14145187 208.71305878 4.13764008 209.62191833 4.13371277 210.55831909 C4.00590508 212.89216936 3.80790693 214.80695206 3 217 C-0.07411816 219.07324248 -2.22426782 219.96699012 -5.9375 220.125 C-9.68588647 218.7480417 -11.47670449 216.84209276 -14.16015625 213.953125 C-15.95867824 212.04386598 -17.8258387 210.33584716 -19.8125 208.625 C-25.92436634 203.33969082 -31.93987077 197.96044769 -37.80859375 192.40625 C-46.54842463 184.09862061 -46.54842463 184.09862061 -55.75 176.3125 C-60.41583793 172.60087855 -64.56481177 168.54655562 -68.73364258 164.30004883 C-71.96854227 161.00936593 -75.28008074 157.9096787 -78.79296875 154.921875 C-82.42140604 151.76224466 -85.921513 148.46206846 -89.43334961 145.17382812 C-93.46466717 141.25412628 -93.46466717 141.25412628 -98 138 C-101.21981513 138.45354788 -103.15354531 139.65285015 -105.66015625 141.66796875 C-106.36213135 142.22532715 -107.06410645 142.78268555 -107.78735352 143.35693359 C-108.53815186 143.96102051 -109.2889502 144.56510742 -110.0625 145.1875 C-111.67604623 146.45574767 -113.29066568 147.72263087 -114.90625 148.98828125 C-117.46056407 150.99714283 -120.01180652 153.00939422 -122.5546875 155.03271484 C-125.04141191 157.00153107 -127.54916098 158.94033268 -130.0625 160.875 C-130.82248291 161.48754639 -131.58246582 162.10009277 -132.36547852 162.73120117 C-136.77786486 166.08863 -140.23280642 167.99513615 -145.88208008 167.56835938 C-149.74885978 166.53068063 -152.0989405 164.14562883 -154.8125 161.3125 C-155.35841797 160.78205078 -155.90433594 160.25160156 -156.46679688 159.70507812 C-158.02512852 158.16935831 -159.53501086 156.62520376 -161 155 C-161.67937622 154.30302002 -162.35875244 153.60604004 -163.05871582 152.88793945 C-165.49296668 149.26664116 -165.58482026 146.34147395 -165.56518555 142.1237793 C-165.5770137 141.34586029 -165.58884186 140.56794128 -165.60102844 139.76644897 C-165.63384843 137.20208304 -165.63687249 134.63878071 -165.63671875 132.07421875 C-165.64703847 130.28448557 -165.65810217 128.49475655 -165.6698761 126.70503235 C-165.68929875 122.95501827 -165.6927336 119.20537703 -165.6862793 115.45532227 C-165.68028913 110.6631868 -165.72448083 105.87299245 -165.78216839 101.08125591 C-165.81924835 97.38442609 -165.82406422 93.68806036 -165.81989479 89.99106789 C-165.82275778 88.22528544 -165.83676164 86.45948294 -165.86237144 84.6938839 C-166.06374474 69.17842986 -166.06374474 69.17842986 -161.60986328 64.01074219 C-159.75442505 62.34954834 -159.75442505 62.34954834 -158 61 C-157.14792969 60.17628906 -156.29585937 59.35257813 -155.41796875 58.50390625 C-154.68191406 57.86324219 -153.94585937 57.22257812 -153.1875 56.5625 C-152.43855469 55.90378906 -151.68960938 55.24507812 -150.91796875 54.56640625 C-147.76868489 51.99438419 -145.28876702 51.56601408 -141.20214844 51.625 C-137.08463717 52.32616378 -134.27907987 54.90247696 -131.125 57.5 C-130.42737549 58.04881836 -129.72975098 58.59763672 -129.01098633 59.16308594 C-126.99199415 60.75733471 -124.99404346 62.37472157 -123 64 C-122.05253906 64.75796875 -121.10507813 65.5159375 -120.12890625 66.296875 C-118.54290173 67.56567862 -116.95941693 68.83764065 -115.37890625 70.11328125 C-112.66101122 72.26885317 -109.90762663 74.36611127 -107.125 76.4375 C-106.24070313 77.09621094 -105.35640625 77.75492187 -104.4453125 78.43359375 C-101.43814523 80.42751864 -101.43814523 80.42751864 -98 81 C-95.74353261 79.5454328 -95.74353261 79.5454328 -93.5625 77.3125 C-92.68980469 76.48621094 -91.81710938 75.65992187 -90.91796875 74.80859375 C-90.4492334 74.35597168 -89.98049805 73.90334961 -89.49755859 73.43701172 C-87.37452526 71.39981345 -85.21095405 69.40794635 -83.04663086 67.41479492 C-81.96823513 66.42144866 -80.89205421 65.42568997 -79.81860352 64.42700195 C-76.95206319 61.76518216 -74.04734987 59.15881299 -71.09375 56.59375 C-67.00894808 53.03551601 -63.0598177 49.34751607 -59.125 45.625 C-53.9238459 40.72658082 -48.69423004 35.87081706 -43.36328125 31.11328125 C-40.68447934 28.71785673 -38.02961031 26.29719573 -35.375 23.875 C-32.31868051 21.09187108 -29.25042752 18.33020197 -26.125 15.625 C-21.77971932 11.85909008 -17.58440058 7.93202994 -13.39111328 3.99853516 C-8.48944356 -0.56902973 -6.7086902 -1.61933901 0 0 Z " fill="#0185CF" transform="translate(165,3)"/>
<path d="M0 0 C74.25 0 148.5 0 225 0 C225 11.55 225 23.1 225 35 C224.01 33.02 224.01 33.02 223 31 C219.2348005 25.62114358 215.7166363 23.52442242 209.6875 21.125 C208.06894958 20.44463953 206.45178495 19.76097404 204.8359375 19.07421875 C204.02479492 18.73181152 203.21365234 18.3894043 202.37792969 18.03662109 C198.78656381 16.47102155 195.30119813 14.71773035 191.8125 12.9375 C190.50539955 12.27956789 189.19810888 11.62201355 187.890625 10.96484375 C185.92161441 9.97290261 183.95513583 8.97694541 181.99414062 7.96923828 C171.551947 2.40367622 171.551947 2.40367622 160 2 C154.98960695 4.91806411 150.97413737 8.64446743 146.8125 12.625 C145.48488608 13.87944736 144.15675738 15.13335013 142.828125 16.38671875 C141.85456055 17.30783447 141.85456055 17.30783447 140.86132812 18.24755859 C135.38598344 23.40259849 129.80710656 28.44893257 124.125 33.375 C118.86017813 37.95217167 113.77504288 42.72593616 108.65820312 47.46679688 C105.62546085 50.27092253 102.576588 53.05741152 99.52929688 55.84570312 C96.89299097 58.25971183 94.26272877 60.67994016 91.640625 63.109375 C80.76755844 73.18327273 80.76755844 73.18327273 75.7734375 77.4609375 C74.52583731 78.54365661 73.30375254 79.65613444 72.1015625 80.7890625 C71.49054688 81.35367188 70.87953125 81.91828125 70.25 82.5 C69.71890625 83.0053125 69.1878125 83.510625 68.640625 84.03125 C67 85 67 85 65.11865234 84.71313477 C62.84372204 83.9473971 61.36518139 83.0104815 59.4609375 81.55859375 C58.80311279 81.06133789 58.14528809 80.56408203 57.4675293 80.05175781 C56.77699463 79.51905273 56.08645996 78.98634766 55.375 78.4375 C54.65932861 77.89319336 53.94365723 77.34888672 53.20629883 76.78808594 C49.32555434 73.82573906 45.4873872 70.81560948 41.6875 67.75 C40.92050781 67.13640625 40.15351562 66.5228125 39.36328125 65.890625 C37.64418363 64.5153469 35.93445762 63.12832923 34.23046875 61.734375 C27.86050461 56.45286962 27.86050461 56.45286962 20.03125 55.21875 C12.70668017 58.03589224 7.1274179 64.59704163 2.27734375 70.53125 C1.85582031 71.0159375 1.43429687 71.500625 1 72 C0.67 72 0.34 72 0 72 C0 48.24 0 24.48 0 0 Z " fill="#FDFEFE" transform="translate(0,0)"/>
<path d="M0 0 C3.8720051 0.40937499 5.85417951 2.40066352 8.625 5 C9.50671875 5.81726563 10.3884375 6.63453125 11.296875 7.4765625 C12.18890625 8.30929688 13.0809375 9.14203125 14 10 C15.62190206 11.46177797 17.24685751 12.92017591 18.875 14.375 C25.75655184 20.56947022 32.57911999 26.82861591 39.37109375 33.12109375 C44.50411153 37.87542203 49.64513162 42.60173199 54.93359375 47.18359375 C61.55391799 53.00297139 67.98101924 59.04637888 74.42944336 65.0546875 C86.58673631 78.07021125 86.58673631 78.07021125 102.4465332 83.32397461 C107.19927227 82.72096431 111.16297598 80.49244943 115.375 78.3125 C117.38882906 77.30500185 119.40317551 76.29853735 121.41796875 75.29296875 C122.47677246 74.75849121 123.53557617 74.22401367 124.62646484 73.67333984 C128.18134592 71.91004886 131.76450499 70.22183906 135.36328125 68.55078125 C137.20381251 67.68996724 139.04387931 66.82816727 140.8838501 65.96615601 C142.65751612 65.13898338 144.43590548 64.32196315 146.21435547 63.50512695 C147.30248535 62.99038818 148.39061523 62.47564941 149.51171875 61.9453125 C150.47553467 61.49687988 151.43935059 61.04844727 152.43237305 60.58642578 C155.37290492 58.76959816 156.97346147 56.77590523 159 54 C159.99 53.01 159.99 53.01 161 52 C161 62.89 161 73.78 161 85 C86.75 85 12.5 85 -64 85 C-64 61.24 -64 37.48 -64 13 C-59 18 -59 18 -57.15625 19.87890625 C-55.45685763 21.60635463 -53.72945605 23.30271987 -52 25 C-51.21625 25.804375 -50.4325 26.60875 -49.625 27.4375 C-45.72179002 29.76083927 -42.43776063 29.87841355 -38 29 C-34.2932863 27.00849325 -31.16883866 24.43000735 -27.9375 21.75 C-26.09822593 20.28444102 -24.25837544 18.81960517 -22.41796875 17.35546875 C-21.51095215 16.62247559 -20.60393555 15.88948242 -19.66943359 15.13427734 C-15.76699837 12.01418509 -11.76495089 9.0354414 -7.75 6.0625 C-3.72055877 3.2104229 -3.72055877 3.2104229 0 0 Z " fill="#FDFEFE" transform="translate(64,140)"/>
<path d="M0 0 C2.65519098 2.20593314 3.84184961 4.02611251 4.39831543 7.45281982 C4.59792387 10.58661905 4.6592998 13.69575142 4.671875 16.8359375 C4.6851886 17.98865143 4.6985022 19.14136536 4.71221924 20.32901001 C4.73244871 22.76484809 4.741854 25.20079675 4.74121094 27.63671875 C4.7499554 31.35603183 4.82259051 35.07058989 4.8984375 38.7890625 C4.91017531 41.15883798 4.91811311 43.52863594 4.921875 45.8984375 C4.95061707 47.00593353 4.97935913 48.11342957 5.00897217 49.25448608 C4.91975249 56.82640428 4.91975249 56.82640428 2.24667358 60.23722839 C0.24288281 62.0103872 -1.76761258 63.52988403 -4 65 C-4.84304687 65.64066406 -5.68609375 66.28132813 -6.5546875 66.94140625 C-7.32039063 67.47636719 -8.08609375 68.01132813 -8.875 68.5625 C-14.89989185 72.86599418 -20.72085208 77.41492021 -26.54248047 81.98852539 C-39.31956355 92 -39.31956355 92 -42 92 C-42 92.66 -42 93.32 -42 94 C-43.59381506 95.29590571 -45.25324782 96.51152694 -46.9375 97.6875 C-51.47499336 100.89009209 -55.83845803 104.21990661 -60.125 107.75 C-62 109 -62 109 -65 109 C-65 108.34 -65 107.68 -65 107 C-65.928125 106.731875 -66.85625 106.46375 -67.8125 106.1875 C-70.85688595 105.053317 -71.89711622 104.30315842 -74 102 C-75.485 101.505 -75.485 101.505 -77 101 C-77 100.34 -77 99.68 -77 99 C-77.99 99 -78.98 99 -80 99 C-81.70779973 97.37550757 -83.37550757 95.70779973 -85 94 C-85.66 93.67 -86.32 93.34 -87 93 C-87 92.34 -87 91.68 -87 91 C-87.5775 90.71125 -88.155 90.4225 -88.75 90.125 C-90.83333333 89.08333333 -92.91666667 88.04166667 -95 87 C-95 86.34 -95 85.68 -95 85 C-95.99 84.67 -96.98 84.34 -98 84 C-97.43269599 80.57407317 -96.4982417 79.22140111 -93.8125 77.0625 C-89.14037103 73.16485007 -84.71216234 69.0446453 -80.27661133 64.88305664 C-77.24721329 62.0521379 -74.18544566 59.2734034 -71.0546875 56.5546875 C-66.98145887 53.01095898 -63.04655134 49.33496549 -59.125 45.625 C-53.9238459 40.72658082 -48.69423004 35.87081706 -43.36328125 31.11328125 C-40.68447934 28.71785673 -38.02961031 26.29719573 -35.375 23.875 C-32.31868051 21.09187108 -29.25042752 18.33020197 -26.125 15.625 C-21.77971932 11.85909008 -17.58440058 7.93202994 -13.39111328 3.99853516 C-8.48944356 -0.56902973 -6.7086902 -1.61933901 0 0 Z " fill="#0175B7" transform="translate(165,3)"/>
<path d="M0 0 C0 33.33 0 66.66 0 101 C-8.29794057 96.85102971 -15.49466459 90.65558829 -22.81030273 84.99414062 C-27.17533711 81.6200284 -31.58081728 78.30278537 -36 75 C-42.06118139 70.46715811 -48.089514 65.89628715 -54.0703125 61.2578125 C-55.96717357 59.79596491 -57.87795232 58.35192934 -59.8046875 56.9296875 C-60.63226563 56.31351563 -61.45984375 55.69734375 -62.3125 55.0625 C-63.03050781 54.53785156 -63.74851562 54.01320312 -64.48828125 53.47265625 C-64.98714844 52.98667969 -65.48601562 52.50070313 -66 52 C-66 49 -66 49 -64.70239258 47.58959961 C-64.10579834 47.11530518 -63.5092041 46.64101074 -62.89453125 46.15234375 C-62.24033203 45.62962891 -61.58613281 45.10691406 -60.91210938 44.56835938 C-59.87280273 43.76108398 -59.87280273 43.76108398 -58.8125 42.9375 C-58.13896484 42.39544922 -57.46542969 41.85339844 -56.77148438 41.29492188 C-53.32604365 38.57554476 -50.24838572 36.32813612 -46 35 C-46 34.34 -46 33.68 -46 33 C-43.98980481 31.43889097 -41.97590881 29.9927065 -39.875 28.5625 C-34.83890857 25.0542836 -29.92553821 21.44936877 -25.125 17.625 C-19.87764432 13.46138636 -14.59058053 9.35606525 -9.25 5.3125 C-8.55793457 4.78285645 -7.86586914 4.25321289 -7.15283203 3.70751953 C-2.23288338 0 -2.23288338 0 0 0 Z " fill="#FDFEFE" transform="translate(169,62)"/>
<path d="M0 0 C0.598125 0.804375 1.19625 1.60875 1.8125 2.4375 C3.80947276 5.22327984 3.80947276 5.22327984 7 6 C7 6.66 7 7.32 7 8 C7.66 8 8.32 8 9 8 C9 8.66 9 9.32 9 10 C10.32 10.33 11.64 10.66 13 11 C13 11.99 13 12.98 13 14 C13.99 14 14.98 14 16 14 C16 14.66 16 15.32 16 16 C16.66 16 17.32 16 18 16 C19.71230248 17.61974559 21.37163262 19.2958946 23 21 C24.3921875 22.3921875 24.3921875 22.3921875 25.8125 23.8125 C26.8953125 24.8953125 26.8953125 24.8953125 28 26 C26.64197157 29.14602162 25.24794354 30.88519368 22.53515625 32.9609375 C21.47252563 33.78247314 21.47252563 33.78247314 20.38842773 34.62060547 C19.62087158 35.19955566 18.85331543 35.77850586 18.0625 36.375 C17.26851807 36.97844238 16.47453613 37.58188477 15.65649414 38.20361328 C13.97162073 39.48133783 12.28429436 40.75583321 10.59472656 42.02734375 C8.00333089 43.99746767 5.44948654 46.00925653 2.8984375 48.03125 C1.24554162 49.31346734 -0.40808238 50.59474673 -2.0625 51.875 C-2.82232178 52.48778809 -3.58214355 53.10057617 -4.36499023 53.73193359 C-8.77840252 57.08796083 -12.23260206 58.99515159 -17.88208008 58.56835938 C-21.74885978 57.53068063 -24.0989405 55.14562883 -26.8125 52.3125 C-27.35841797 51.78205078 -27.90433594 51.25160156 -28.46679688 50.70507812 C-36.58276355 42.70687638 -36.58276355 42.70687638 -37.6875 38.1875 C-35.53262702 28.19672526 -22.30469858 19.67053494 -15 13 C-14.47841309 12.52256348 -13.95682617 12.04512695 -13.41943359 11.55322266 C-9.04749567 7.5580992 -4.64970579 3.67082036 0 0 Z " fill="#016CAE" transform="translate(37,112)"/>
<path d="M0 0 C1.32 1.65 2.64 3.3 4 5 C7.3014584 8.56871931 10.82079667 11.88718756 14.5 15.0625 C18.71116821 18.699418 22.79702094 22.46530688 26.875 26.25 C27.54208984 26.86496338 28.20917969 27.47992676 28.89648438 28.11352539 C29.52619141 28.69996826 30.15589844 29.28641113 30.8046875 29.890625 C31.37171387 30.41688477 31.93874023 30.94314453 32.52294922 31.48535156 C34 33 34 33 36 36 C30.60694771 41.48227558 25.23563546 46.910535 19.3828125 51.90625 C15.89641968 54.96970336 12.51488029 58.14298593 9.125 61.3125 C8.12388184 62.24799683 8.12388184 62.24799683 7.10253906 63.20239258 C3.51388855 66.56241532 3.51388855 66.56241532 0 70 C0 46.9 0 23.8 0 0 Z " fill="#FDFEFE" transform="translate(0,77)"/>
<path d="M0 0 C0.33 0 0.66 0 1 0 C1.13358683 7.79184907 1.26408915 15.58374404 1.39115143 23.3757019 C1.45030423 26.99788869 1.51033591 30.62005539 1.57275391 34.2421875 C1.92666185 54.83020235 2.06813391 75.40888434 2 96 C2.66 96 3.32 96 4 96 C7.76480484 99.76480484 7.11771817 105.33538653 7.13894653 110.39509583 C7.1369223 111.18897202 7.13489807 111.98284821 7.1328125 112.80078125 C7.13424759 114.05449776 7.13424759 114.05449776 7.13571167 115.33354187 C7.13638973 117.09597855 7.1345616 118.85841778 7.13037109 120.62084961 C7.12503788 123.29351534 7.13031835 125.96601147 7.13671875 128.63867188 C7.13605751 130.35937537 7.13477539 132.08007875 7.1328125 133.80078125 C7.13483673 134.58858475 7.13686096 135.37638824 7.13894653 136.18806458 C7.1168271 141.52651637 6.66368036 146.70209076 6 152 C7.98 152.33 9.96 152.66 12 153 C8.15912292 157.21530221 3.09834642 159.69624055 -2.58984375 160.25390625 C-4.72823538 160.25052806 -6.86590291 160.13549823 -9 160 C-6.53721199 157.53721199 -4.29323018 157.00228745 -1 156 C-1.00523682 154.79174561 -1.01047363 153.58349121 -1.01586914 152.33862305 C-1.15285387 116.86801699 -0.87377727 81.40593253 -0.5 45.9375 C-0.48804218 44.80246914 -0.47608437 43.66743828 -0.46376419 42.49801254 C-0.31406863 28.33195381 -0.15935296 14.16595327 0 0 Z " fill="#1BA0EF" transform="translate(169,64)"/>
<path d="M0 0 C-0.61277612 2.96175123 -1.25372522 4.38058783 -3 7 C-2.67 7.66 -2.34 8.32 -2 9 C-1.34 8.01 -0.68 7.02 0 6 C0 9.3 0 12.6 0 16 C3.465 15.505 3.465 15.505 7 15 C6.34 15.66 5.68 16.32 5 17 C5.35355436 19.26274788 5.97544426 20.95088852 7 23 C7.99 23.66 8.98 24.32 10 25 C9.67 24.34 9.34 23.68 9 23 C10.65 23.66 12.3 24.32 14 25 C14.33 24.34 14.66 23.68 15 23 C15.33 24.65 15.66 26.3 16 28 C15.34 28 14.68 28 14 28 C14.33 29.98 14.66 31.96 15 34 C16.32 34.33 17.64 34.66 19 35 C19 34.34 19 33.68 19 33 C20.32 33 21.64 33 23 33 C23.061875 33.886875 23.12375 34.77375 23.1875 35.6875 C24.18679892 39.76156481 25.92876288 41.23588659 29 44 C29.33 44.66 29.66 45.32 30 46 C29.34 46.66 28.68 47.32 28 48 C27.29875 47.28714844 26.5975 46.57429688 25.875 45.83984375 C21.17486275 41.08557664 16.45955992 36.44046981 11.3828125 32.0859375 C7.91336533 29.04874932 4.51527073 25.93758084 1.125 22.8125 C0.45758789 22.20559326 -0.20982422 21.59868652 -0.89746094 20.97338867 C-1.84153809 20.09904175 -1.84153809 20.09904175 -2.8046875 19.20703125 C-3.37171387 18.6860083 -3.93874023 18.16498535 -4.52294922 17.62817383 C-7.25447386 14.61717584 -8.0118525 12.65188737 -7.9375 8.5625 C-6.87749469 4.53447984 -4.73556784 0 0 0 Z " fill="#0D8ED1" transform="translate(8,65)"/>
<path d="M0 0 C4.52615993 3.67832017 8.39424999 7.41086363 12 12 C9.36 14.64 6.72 17.28 4 20 C3.01 19.01 2.02 18.02 1 17 C1.33 16.34 1.66 15.68 2 15 C1.34 15 0.68 15 0 15 C0 11.37 0 7.74 0 4 C-1.32 3.34 -2.64 2.68 -4 2 C-2.68 2 -1.36 2 0 2 C0 1.34 0 0.68 0 0 Z " fill="#F6F9F9" transform="translate(24,101)"/>
<path d="M0 0 C0.66 0 1.32 0 2 0 C2 33.33 2 66.66 2 101 C1.01 100.67 0.02 100.34 -1 100 C-0.505 99.01 -0.505 99.01 0 98 C0.12298959 94.98000001 0.18579555 91.98160625 0.20532227 88.96044922 C0.21522186 88.02381439 0.22512146 87.08717957 0.23532104 86.12216187 C0.26698922 83.01636307 0.29171448 79.91054896 0.31640625 76.8046875 C0.33697119 74.65519811 0.35796753 72.50571281 0.37937927 70.35623169 C0.4346475 64.69109399 0.48403581 59.02591951 0.53222656 53.36071777 C0.58240694 47.58289302 0.63811106 41.80512187 0.69335938 36.02734375 C0.80099904 24.68494159 0.90243109 13.34249295 1 2 C0.34 1.67 -0.32 1.34 -1 1 C-0.67 0.67 -0.34 0.34 0 0 Z " fill="#DCF0FE" transform="translate(167,62)"/>
<path d="M0 0 C3.37113868 1.18445413 5.78872075 2.14805787 8 5 C8.36076355 7.33488464 8.36076355 7.33488464 8.34057617 10.11401367 C8.34034958 11.15486618 8.34012299 12.19571869 8.33988953 13.26811218 C8.32440567 14.39006485 8.30892181 15.51201752 8.29296875 16.66796875 C8.28872391 17.81791824 8.28447906 18.96786774 8.28010559 20.15266418 C8.26329189 23.83117941 8.22563377 27.50914992 8.1875 31.1875 C8.17245669 33.67902856 8.15876767 36.17056568 8.14648438 38.66210938 C8.11337953 44.77492593 8.06315305 50.88742405 8 57 C7.67 57 7.34 57 7 57 C7 41.16 7 25.32 7 9 C3.89459074 7.78918149 3.89459074 7.78918149 0 8 C-1.09658936 4.71023192 -0.79953138 3.28696233 0 0 Z " fill="#057DC6" transform="translate(161,159)"/>
<path d="M0 0 C4 4 4 4 4 7 C4.99 6.67 5.98 6.34 7 6 C7.33 6.66 7.66 7.32 8 8 C8.78375 8.309375 9.5675 8.61875 10.375 8.9375 C12.99082154 9.99628491 14.30700114 10.77236992 16 13 C16 13.99 16 14.98 16 16 C16.66 16.33 17.32 16.66 18 17 C17.34 17.99 16.68 18.98 16 20 C15.29875 19.28714844 14.5975 18.57429688 13.875 17.83984375 C8.43021413 12.33348052 2.93646177 6.9839063 -3 2 C-2.01 1.34 -1.02 0.68 0 0 Z " fill="#0C7BC6" transform="translate(120,184)"/>
<path d="M0 0 C-2.66567118 2.19467757 -5.36062011 4.35011708 -8.0625 6.5 C-8.81466797 7.12003906 -9.56683594 7.74007812 -10.34179688 8.37890625 C-16.72265625 13.40625 -16.72265625 13.40625 -21.05859375 13.40625 C-22.02925781 13.2721875 -22.99992187 13.138125 -24 13 C-24 12.67 -24 12.34 -24 12 C-22.35 11.67 -20.7 11.34 -19 11 C-18.67 9.68 -18.34 8.36 -18 7 C-16.68 7.66 -15.36 8.32 -14 9 C-14.33 7.68 -14.66 6.36 -15 5 C-13.02 4.67 -11.04 4.34 -9 4 C-8.67 2.68 -8.34 1.36 -8 0 C-4.71303767 -0.79953138 -3.28976808 -1.09658936 0 0 Z " fill="#0E6AA8" transform="translate(43,157)"/>
<path d="M0 0 C4.43458973 1.3937282 6.87378374 3.60582235 10 7 C8.50958227 10.79379058 6.30937488 12.68343758 3 15 C2.34 15 1.68 15 1 15 C2 12 2 12 4 9 C3.01 9 2.02 9 1 9 C1 7.68 1 6.36 1 5 C0.69595322 3.32774271 0.36871088 1.65919896 0 0 Z " fill="#0764A1" transform="translate(55,131)"/>
<path d="M0 0 C0.33 0.66 0.66 1.32 1 2 C5.03205291 1.44658097 9.01042542 0.79791492 13 0 C13.66 0 14.32 0 15 0 C13.50871999 3.79598549 11.34266559 5.71720399 8 8 C7.01 8 6.02 8 5 8 C5 7.34 5 6.68 5 6 C4.38125 5.9175 3.7625 5.835 3.125 5.75 C1 5 1 5 -0.25 2.9375 C-0.62125 1.9784375 -0.62125 1.9784375 -1 1 C-0.67 0.67 -0.34 0.34 0 0 Z " fill="#0267A5" transform="translate(95,104)"/>
<path d="M0 0 C1.125 1.75 1.125 1.75 2 4 C1.125 6.25 1.125 6.25 0 8 C-0.94875 7.938125 -1.8975 7.87625 -2.875 7.8125 C-4.421875 7.9053125 -4.421875 7.9053125 -6 8 C-6.99 9.485 -6.99 9.485 -8 11 C-8.66 11 -9.32 11 -10 11 C-10 11.99 -10 12.98 -10 14 C-10.99 14 -11.98 14 -13 14 C-13 14.66 -13 15.32 -13 16 C-14.32 15.67 -15.64 15.34 -17 15 C-14.91880554 13.06015834 -12.83515453 11.12307706 -10.75 9.1875 C-9.87021484 8.36668945 -9.87021484 8.36668945 -8.97265625 7.52929688 C-6.08463321 4.85219687 -3.22478709 2.27491168 0 0 Z " fill="#166EA8" transform="translate(37,112)"/>
<path d="M0 0 C3.3 0 6.6 0 10 0 C10.33 1.32 10.66 2.64 11 4 C10.01 4 9.02 4 8 4 C8 4.66 8 5.32 8 6 C5.6739143 6.38063221 3.33944736 6.71269945 1 7 C0 6 0 6 -0.0625 2.9375 C-0.041875 1.968125 -0.02125 0.99875 0 0 Z " fill="#EFF6F7" transform="translate(16,49)"/>
<path d="M0 0 C1.29315061 0.95632999 2.58446853 1.91513851 3.875 2.875 C4.59429687 3.40867188 5.31359375 3.94234375 6.0546875 4.4921875 C8 6 8 6 10 8 C9.625 10.625 9.625 10.625 9 13 C7.68 13.33 6.36 13.66 5 14 C5 11.36 5 8.72 5 6 C4.236875 6.020625 3.47375 6.04125 2.6875 6.0625 C0 6 0 6 -3 5 C-3 3 -3 3 -1.5 1.375 C-1.005 0.92125 -0.51 0.4675 0 0 Z " fill="#F6F8F8" transform="translate(99,170)"/>
<path d="M0 0 C0 3 0 3 -2 6 C-3.63495707 7.05104383 -5.29883624 8.05988318 -7 9 C-6.34 9.66 -5.68 10.32 -5 11 C-4.875 13.625 -4.875 13.625 -5 16 C-5.66 15.34 -6.32 14.68 -7 14 C-9.58354218 13.83312552 -9.58354218 13.83312552 -12 14 C-12 11 -12 11 -9.375 8.30078125 C-8.25745974 7.29632542 -7.13208967 6.30052871 -6 5.3125 C-5.42765625 4.80138672 -4.8553125 4.29027344 -4.265625 3.76367188 C-2.85032787 2.5016986 -1.42599731 1.24986967 0 0 Z " fill="#157BB7" transform="translate(109,46)"/>
<path d="M0 0 C1.65 0.33 3.3 0.66 5 1 C5 0.67 5 0.34 5 0 C7.31 0 9.62 0 12 0 C12 0.99 12 1.98 12 3 C7.49646738 4.75747614 3.82360189 5.19294408 -1 5 C-0.67 3.35 -0.34 1.7 0 0 Z " fill="#1A9DEB" transform="translate(201,200)"/>
<path d="M0 0 C-0.33 1.98 -0.66 3.96 -1 6 C-3.31 6.33 -5.62 6.66 -8 7 C-8.66 8.98 -9.32 10.96 -10 13 C-10.66 12.67 -11.32 12.34 -12 12 C-12 11.34 -12 10.68 -12 10 C-12.66 9.67 -13.32 9.34 -14 9 C-12.04594482 7.49412261 -10.08718716 5.99521356 -8.125 4.5 C-7.56941406 4.07074219 -7.01382813 3.64148438 -6.44140625 3.19921875 C-2.2265625 0 -2.2265625 0 0 0 Z " fill="#EEF6F8" transform="translate(144,81)"/>
<path d="M0 0 C3.37503669 1.1858237 5.64722731 2.27573689 8 5 C7.67 5.99 7.34 6.98 7 8 C6.05125 7.814375 5.1025 7.62875 4.125 7.4375 C1.10131207 6.71313368 1.10131207 6.71313368 -1 8 C-1.04241723 5.66705225 -1.04092937 3.33297433 -1 1 C-0.67 0.67 -0.34 0.34 0 0 Z " fill="#0A76BD" transform="translate(161,159)"/>
<path d="M0 0 C0.99 0.33 1.98 0.66 3 1 C2.34 2.32 1.68 3.64 1 5 C4.0745356 4.2236068 4.0745356 4.2236068 6 2 C6.95808288 5.5928108 7.20508082 7.38475753 6 11 C4.65826597 10.07456291 3.32679841 9.13422595 2 8.1875 C1.2575 7.66542969 0.515 7.14335938 -0.25 6.60546875 C-0.8275 6.07566406 -1.405 5.54585938 -2 5 C-2 2 -2 2 0 0 Z " fill="#E8F3F6" transform="translate(105,109)"/>
<path d="M0 0 C0.7425 0.45375 1.485 0.9075 2.25 1.375 C4.46930578 2.68640796 6.67967822 3.88280803 9 5 C8.67 5.99 8.34 6.98 8 8 C5.98177083 7.70703125 3.96354167 7.4140625 1.9453125 7.12109375 C-0.08140667 6.8315703 -0.08140667 6.8315703 -2 8 C-1.649375 7.38125 -1.29875 6.7625 -0.9375 6.125 C-0.628125 5.42375 -0.31875 4.7225 0 4 C-0.33 3.34 -0.66 2.68 -1 2 C-0.67 1.34 -0.34 0.68 0 0 Z " fill="#118FD1" transform="translate(58,80)"/>
<path d="M0 0 C2.64 0 5.28 0 8 0 C8 0.66 8 1.32 8 2 C8.99 2.33 9.98 2.66 11 3 C10.67 4.32 10.34 5.64 10 7 C6.37 5.35 2.74 3.7 -1 2 C-0.67 1.34 -0.34 0.68 0 0 Z " fill="#F6FBFA" transform="translate(189,9)"/>
<path d="M0 0 C7.48291572 6.15034169 7.48291572 6.15034169 10 10 C9.443125 9.855625 8.88625 9.71125 8.3125 9.5625 C5.88615805 8.97230872 3.45093655 8.476571 1 8 C0.87625 7.071875 0.87625 7.071875 0.75 6.125 C0.18741541 3.81562433 0.18741541 3.81562433 -2.0625 2.75 C-2.701875 2.5025 -3.34125 2.255 -4 2 C-2.68 2 -1.36 2 0 2 C0 1.34 0 0.68 0 0 Z " fill="#EAF3F7" transform="translate(24,101)"/>
<path d="M0 0 C0.66 0 1.32 0 2 0 C2.77734375 2.23046875 2.77734375 2.23046875 3 5 C1.12890625 7.23828125 1.12890625 7.23828125 -1.4375 9.3125 C-2.28183594 10.00988281 -3.12617187 10.70726562 -3.99609375 11.42578125 C-4.65738281 11.94527344 -5.31867188 12.46476562 -6 13 C-6.66 12.34 -7.32 11.68 -8 11 C-3.25 5.125 -3.25 5.125 -1 4 C-0.34786708 1.97536745 -0.34786708 1.97536745 0 0 Z " fill="#EBF4F6" transform="translate(104,44)"/>
<path d="M0 0 C0.66 0.99 1.32 1.98 2 3 C1.34 3 0.68 3 0 3 C0.33 3.99 0.66 4.98 1 6 C-0.25 7.5625 -0.25 7.5625 -2 9 C-4.1875 8.6875 -4.1875 8.6875 -6 8 C-5.01 7.01 -4.02 6.02 -3 5 C-5.97 4.505 -5.97 4.505 -9 4 C-9 3.67 -9 3.34 -9 3 C-7.88625 2.690625 -6.7725 2.38125 -5.625 2.0625 C-2.2054845 1.17673517 -2.2054845 1.17673517 0 0 Z " fill="#E8EFF4" transform="translate(29,167)"/>
<path d="M0 0 C0.33 0.66 0.66 1.32 1 2 C0.0625 4.125 0.0625 4.125 -1 6 C-1.33 5.67 -1.66 5.34 -2 5 C-2.33 6.32 -2.66 7.64 -3 9 C-3.99 9 -4.98 9 -6 9 C-6.66 10.32 -7.32 11.64 -8 13 C-8.25 7.375 -8.25 7.375 -6 4 C-4.35857037 2.9590934 -2.69287785 1.95495674 -1 1 C-0.67 0.67 -0.34 0.34 0 0 Z " fill="#1074B7" transform="translate(8,140)"/>
<path d="M0 0 C0.33 0.66 0.66 1.32 1 2 C1.66 2.33 2.32 2.66 3 3 C2.030625 3.28875 1.06125 3.5775 0.0625 3.875 C-3.10664203 4.64214682 -3.10664203 4.64214682 -4 7 C-3.34 7.33 -2.68 7.66 -2 8 C-4.57213134 9.61949011 -5.67669159 10.04408751 -8.75 9.625 C-9.86375 9.315625 -9.86375 9.315625 -11 9 C-8.22719294 5.91910327 -5.93673644 4.31224548 -2 3 C-2 2.34 -2 1.68 -2 1 C-1.34 0.67 -0.68 0.34 0 0 Z " fill="#E6F2F7" transform="translate(125,94)"/>
<path d="M0 0 C0.33 0.66 0.66 1.32 1 2 C-0.65 2 -2.3 2 -4 2 C-3.67 2.99 -3.34 3.98 -3 5 C-3.66 5 -4.32 5 -5 5 C-5 4.01 -5 3.02 -5 2 C-5.99 3.485 -5.99 3.485 -7 5 C-7.99 5 -8.98 5 -10 5 C-9.625 2.5625 -9.625 2.5625 -9 0 C-5.88173308 -1.55913346 -3.32926126 -0.66585225 0 0 Z " fill="#0D7EC1" transform="translate(165,3)"/>
<path d="M0 0 C0.66 0.33 1.32 0.66 2 1 C1 4 1 4 -1 5 C-1.65213292 7.02463255 -1.65213292 7.02463255 -2 9 C-3.98 7.35 -5.96 5.7 -8 4 C-6 2 -6 2 -3 1 C-2.01 1.33 -1.02 1.66 0 2 C0 1.34 0 0.68 0 0 Z " fill="#0F80CA" transform="translate(118,176)"/>
<path d="M0 0 C0.66 0.33 1.32 0.66 2 1 C1.34 1.66 0.68 2.32 0 3 C1.65 3.33 3.3 3.66 5 4 C5 4.66 5 5.32 5 6 C5.99 6.33 6.98 6.66 8 7 C1.07 6.505 1.07 6.505 -6 6 C-4 4 -2 2 0 0 Z " fill="#EAF3F7" transform="translate(152,73)"/>
<path d="M0 0 C0 0.99 0 1.98 0 3 C-2.76565382 3.92188461 -4.38283702 4.11785222 -7.23046875 4.09765625 C-8.03291016 4.09443359 -8.83535156 4.09121094 -9.66210938 4.08789062 C-10.49548828 4.07951172 -11.32886719 4.07113281 -12.1875 4.0625 C-13.03248047 4.05798828 -13.87746094 4.05347656 -14.74804688 4.04882812 C-16.83206155 4.03705403 -18.91603977 4.0191189 -21 4 C-19.61938477 2.48120117 -19.61938477 2.48120117 -18 1 C-16.08984375 1.30078125 -16.08984375 1.30078125 -14 2 C-8.95066116 2.38841068 -4.59465215 2.37143337 0 0 Z " fill="#E9F3FB" transform="translate(174,221)"/>
<path d="M0 0 C0.66 0.33 1.32 0.66 2 1 C2 4 2 4 0.875 5.5625 C-2.43478379 8.10000091 -5.87126999 9 -10 9 C-6.7 6.03 -3.4 3.06 0 0 Z " fill="#0D75B0" transform="translate(95,59)"/>
<path d="M0 0 C0.66 0.33 1.32 0.66 2 1 C1.29875 1.680625 0.5975 2.36125 -0.125 3.0625 C-2.26524411 5.17251467 -4.12936459 7.39959022 -6 9.75 C-8.04865963 12.19671526 -8.75006331 12.9184989 -11.875 13.9375 C-12.57625 13.958125 -13.2775 13.97875 -14 14 C-9.33333333 9.33333333 -4.66666667 4.66666667 0 0 Z " fill="#2A81B6" transform="translate(126,30)"/>
<path d="M0 0 C3.81936528 1.55603771 6.26044438 3.95604931 9 7 C9 7.66 9 8.32 9 9 C8.01 9.33 7.02 9.66 6 10 C5.87625 9.071875 5.87625 9.071875 5.75 8.125 C5.21189267 5.81653196 5.21189267 5.81653196 3 5 C1 4 1 4 0.25 1.875 C0.1675 1.25625 0.085 0.6375 0 0 Z " fill="#EDF5F6" transform="translate(138,206)"/>
<path d="M0 0 C0.33 0.99 0.66 1.98 1 3 C2.98 2.01 4.96 1.02 7 0 C7 2.31 7 4.62 7 7 C3.09161134 7 1.88405893 5.49432124 -1 3 C-0.67 2.01 -0.34 1.02 0 0 Z " fill="#EDF6F6" transform="translate(33,57)"/>
<path d="M0 0 C0.66 0.33 1.32 0.66 2 1 C-2.61012242 3.95047835 -5.36529617 5.5497272 -11 5 C-11 3.68 -11 2.36 -11 1 C-10.06027344 1.01740234 -10.06027344 1.01740234 -9.1015625 1.03515625 C-7.87566406 1.04869141 -7.87566406 1.04869141 -6.625 1.0625 C-5.40683594 1.07990234 -5.40683594 1.07990234 -4.1640625 1.09765625 C-1.95062858 1.14466334 -1.95062858 1.14466334 0 0 Z " fill="#179BF0" transform="translate(195,209)"/>
<path d="M0 0 C5.3762621 2.91214197 10.17918273 6.24351901 15 10 C13.68 10.33 12.36 10.66 11 11 C10.67 10.01 10.34 9.02 10 8 C8.14255793 7.38932856 8.14255793 7.38932856 6 7 C4.6520257 6.36345658 3.31403276 5.70394612 2 5 C2 4.01 2 3.02 2 2 C1.34 2 0.68 2 0 2 C0 1.34 0 0.68 0 0 Z " fill="#2193CF" transform="translate(26,56)"/>
<path d="M0 0 C0 0.66 0 1.32 0 2 C1.98 2 3.96 2 6 2 C6.66 3.65 7.32 5.3 8 7 C3.52761347 5.58192622 -0.71146306 3.88695626 -5 2 C-2 0 -2 0 0 0 Z " fill="#E9F5F8" transform="translate(176,1)"/>
<path d="M0 0 C3.81684226 1.55500981 6.19195732 4.03595495 9 7 C8.01 7.33 7.02 7.66 6 8 C5.34 7.34 4.68 6.68 4 6 C3.01 6.495 3.01 6.495 2 7 C1.34 6.34 0.68 5.68 0 5 C0 3.33333333 0 1.66666667 0 0 Z " fill="#1389CE" transform="translate(121,128)"/>
<path d="M0 0 C0.66 0.33 1.32 0.66 2 1 C0.79180633 4.624581 0.19658087 4.40170957 -3 6 C-3.33 6.99 -3.66 7.98 -4 9 C-5.65 9 -7.3 9 -9 9 C-6 6 -3 3 0 0 Z " fill="#156FAD" transform="translate(19,128)"/>
<path d="M0 0 C2.86697492 1.28519565 4.97607712 2.57129254 7 5 C7 5.66 7 6.32 7 7 C6.01 7.33 5.02 7.66 4 8 C3.34 6.68 2.68 5.36 2 4 C1.67 5.32 1.34 6.64 1 8 C0 7 0 7 -0.0625 3.4375 C-0.041875 2.303125 -0.02125 1.16875 0 0 Z " fill="#27B5F0" transform="translate(216,24)"/>
<path d="M0 0 C1.98 0 3.96 0 6 0 C6.66 1.65 7.32 3.3 8 5 C7.34 5.66 6.68 6.32 6 7 C4.02 4.69 2.04 2.38 0 0 Z " fill="#1285CE" transform="translate(72,144)"/>
<path d="M0 0 C0.66 0 1.32 0 2 0 C2.66 1.32 3.32 2.64 4 4 C2.35830472 6.02054804 0.69088222 8.02043058 -1 10 C-1.33 10 -1.66 10 -2 10 C-2.125 7.625 -2.125 7.625 -2 5 C-1.34 4.34 -0.68 3.68 0 3 C0 2.01 0 1.02 0 0 Z " fill="#E8F3F5" transform="translate(2,137)"/>
<path d="M0 0 C1.98 0.66 3.96 1.32 6 2 C4.68 3.32 3.36 4.64 2 6 C0.68 4.68 -0.64 3.36 -2 2 C-1.34 1.34 -0.68 0.68 0 0 Z " fill="#EAF1F5" transform="translate(10,129)"/>
<path d="M0 0 C0.66 0.33 1.32 0.66 2 1 C1.75 2.875 1.75 2.875 1 5 C-1.0625 6.25 -1.0625 6.25 -3 7 C-3.66 6.01 -4.32 5.02 -5 4 C-4.67 3.01 -4.34 2.02 -4 1 C-3.67 1.66 -3.34 2.32 -3 3 C-2.34 3 -1.68 3 -1 3 C-0.67 2.01 -0.34 1.02 0 0 Z " fill="#199DE5" transform="translate(221,192)"/>
<path d="M0 0 C2.97 1.98 2.97 1.98 6 4 C5.01 4.99 4.02 5.98 3 7 C0.525 6.01 0.525 6.01 -2 5 C-2 4.34 -2 3.68 -2 3 C-1.34 2.67 -0.68 2.34 0 2 C0 1.34 0 0.68 0 0 Z " fill="#118AD2" transform="translate(143,144)"/>
<path d="M0 0 C1.65 0 3.3 0 5 0 C5.33 0.99 5.66 1.98 6 3 C6.66 3.33 7.32 3.66 8 4 C7.67 4.66 7.34 5.32 7 6 C4.50638429 4.79618552 2.31856917 3.54571278 0 2 C0 1.34 0 0.68 0 0 Z " fill="#EAF4FA" transform="translate(146,145)"/>
<path d="M0 0 C0.66 0 1.32 0 2 0 C2.33 0.66 2.66 1.32 3 2 C3.99 2 4.98 2 6 2 C5.67 3.65 5.34 5.3 5 7 C3.02 5.68 1.04 4.36 -1 3 C-0.67 2.01 -0.34 1.02 0 0 Z " fill="#E9F3F9" transform="translate(138,137)"/>
<path d="M0 0 C0.66666667 2.66666667 1.33333333 5.33333333 2 8 C0.02 7.34 -1.96 6.68 -4 6 C-3.6875 4.125 -3.6875 4.125 -3 2 C-2.01 1.34 -1.02 0.68 0 0 Z " fill="#0F69A3" transform="translate(71,81)"/>
<path d="M0 0 C2.31 1.98 4.62 3.96 7 6 C6.67 6.66 6.34 7.32 6 8 C3.53199953 6.84826645 1.95216435 5.95216435 0 4 C0 2.68 0 1.36 0 0 Z " fill="#E5F0F3" transform="translate(115,184)"/>
<path d="M0 0 C0.99 0 1.98 0 3 0 C3 0.66 3 1.32 3 2 C4.32 2.33 5.64 2.66 7 3 C4.6875 5.0625 4.6875 5.0625 2 7 C1.01 6.67 0.02 6.34 -1 6 C-0.01 4.68 0.98 3.36 2 2 C1.34 2 0.68 2 0 2 C0 1.34 0 0.68 0 0 Z " fill="#1474AF" transform="translate(130,83)"/>
<path d="M0 0 C1.32 0.33 2.64 0.66 4 1 C2.02 3.31 0.04 5.62 -2 8 C-2 2 -2 2 0 0 Z " fill="#EDF7F8" transform="translate(110,40)"/>
<path d="M0 0 C0.33 0 0.66 0 1 0 C1.1953125 6.0546875 1.1953125 6.0546875 1 8 C0.34 8.66 -0.32 9.32 -1 10 C-1 9.01 -1 8.02 -1 7 C-1.99 6.67 -2.98 6.34 -4 6 C-2.69593116 3.98079663 -1.36176581 1.98075027 0 0 Z " fill="#EDF8FB" transform="translate(224,192)"/>
<path d="M0 0 C0.66 0.33 1.32 0.66 2 1 C2 2.98 2 4.96 2 7 C0.68 7 -0.64 7 -2 7 C-2.66 6.01 -3.32 5.02 -4 4 C-2.68 3.34 -1.36 2.68 0 2 C0 1.34 0 0.68 0 0 Z " fill="#1691D3" transform="translate(12,82)"/>
<path d="M0 0 C2.97 0.495 2.97 0.495 6 1 C6 2.32 6 3.64 6 5 C4.35 5 2.7 5 1 5 C1 4.01 1 3.02 1 2 C0.67 1.34 0.34 0.68 0 0 Z " fill="#0990D4" transform="translate(48,75)"/>
<path d="M0 0 C1.45792884 -0.05399736 2.91642712 -0.09279177 4.375 -0.125 C5.18710938 -0.14820312 5.99921875 -0.17140625 6.8359375 -0.1953125 C9 0 9 0 11 2 C8.875 3.1875 8.875 3.1875 6 4 C2.6875 2.625 2.6875 2.625 0 1 C0 0.67 0 0.34 0 0 Z " fill="#1BB0ED" transform="translate(160,1)"/>
<path d="M0 0 C2.31 0.33 4.62 0.66 7 1 C7 2.32 7 3.64 7 5 C4.11424181 4.60196439 3.17810487 4.20990931 1.25 1.9375 C0.8375 1.298125 0.425 0.65875 0 0 Z " fill="#1F77B3" transform="translate(8,161)"/>
<path d="M0 0 C0 1.98 0 3.96 0 6 C-1.32 6 -2.64 6 -4 6 C-4 4.35 -4 2.7 -4 1 C-2 0 -2 0 0 0 Z " fill="#0571B6" transform="translate(31,122)"/>
<path d="M0 0 C-0.3125 2.375 -0.3125 2.375 -1 5 C-1.99 5.66 -2.98 6.32 -4 7 C-4.6875 5.1875 -4.6875 5.1875 -5 3 C-3.38441968 0.84589291 -2.74502455 0 0 0 Z " fill="#1480BC" transform="translate(137,22)"/>
<path d="M0 0 C0.99 0.33 1.98 0.66 3 1 C2.67 1.99 2.34 2.98 2 4 C-0.31 4.33 -2.62 4.66 -5 5 C-3.35 3.35 -1.7 1.7 0 0 Z " fill="#0679C5" transform="translate(163,218)"/>
<path d="M0 0 C0.33 0.66 0.66 1.32 1 2 C0.01 3.485 0.01 3.485 -1 5 C-4.625 5.1875 -4.625 5.1875 -8 5 C-5.44008376 2.98863724 -2.95409701 1.37154504 0 0 Z " fill="#EAF3F9" transform="translate(213,202)"/>
<path d="M0 0 C0.33 1.32 0.66 2.64 1 4 C2.32 3.67 3.64 3.34 5 3 C4.34 4.65 3.68 6.3 3 8 C1.68 7.01 0.36 6.02 -1 5 C-0.67 3.35 -0.34 1.7 0 0 Z " fill="#0B66A0" transform="translate(2,150)"/>
<path d="M0 0 C0.99 0.33 1.98 0.66 3 1 C-1.75 5.875 -1.75 5.875 -4 7 C-3.39816251 4.97954558 -2.72693904 2.97888961 -2 1 C-1.34 0.67 -0.68 0.34 0 0 Z " fill="#EBF5FC" transform="translate(23,121)"/>
<path d="M0 0 C2 0 4 0 6 0 C5.34 1.32 4.68 2.64 4 4 C2.68 4 1.36 4 0 4 C0 2.68 0 1.36 0 0 Z " fill="#0E6CA9" transform="translate(104,104)"/>
<path d="M0 0 C3.36720387 1.39332574 4.9859524 2.9789286 7 6 C4 6 4 6 1.8125 4.125 C0 2 0 2 0 0 Z " fill="#DFEFF4" transform="translate(11,90)"/>
<path d="M0 0 C1.98 0 3.96 0 6 0 C5.67 1.32 5.34 2.64 5 4 C3.0625 3.6875 3.0625 3.6875 1 3 C0.67 2.01 0.34 1.02 0 0 Z " fill="#0E77B9" transform="translate(135,80)"/>
<path d="M0 0 C2.3125 -0.25 2.3125 -0.25 5 0 C6.8125 2 6.8125 2 8 4 C7.67 4.66 7.34 5.32 7 6 C5.83054208 5.19152271 4.66449539 4.37810888 3.5 3.5625 C2.8503125 3.11003906 2.200625 2.65757813 1.53125 2.19140625 C1.0259375 1.79824219 0.520625 1.40507813 0 1 C0 0.67 0 0.34 0 0 Z " fill="#DAEBF4" transform="translate(48,72)"/>
<path d="M0 0 C0 2.31 0 4.62 0 7 C-0.66 6.34 -1.32 5.68 -2 5 C-2.66 5 -3.32 5 -4 5 C-4.33 3.68 -4.66 2.36 -5 1 C-3 0 -3 0 0 0 Z " fill="#F2F5F4" transform="translate(168,64)"/>
<path d="M0 0 C0.66 0.33 1.32 0.66 2 1 C2 1.99 2 2.98 2 4 C0.35 4.33 -1.3 4.66 -3 5 C-3.66 4.01 -4.32 3.02 -5 2 C-2.625 0.9375 -2.625 0.9375 0 0 Z " fill="#0774BA" transform="translate(158,216)"/>
<path d="M0 0 C3.875 4.75 3.875 4.75 5 7 C4.01 7 3.02 7 2 7 C1.34 7.99 0.68 8.98 0 10 C0 6.7 0 3.4 0 0 Z " fill="#DFF3F8" transform="translate(0,77)"/>
<path d="M0 0 C1.98 0.66 3.96 1.32 6 2 C5.34 3.32 4.68 4.64 4 6 C3.34 6 2.68 6 2 6 C1.67 5.01 1.34 4.02 1 3 C0.34 2.34 -0.32 1.68 -1 1 C-0.67 0.67 -0.34 0.34 0 0 Z " fill="#066BAE" transform="translate(154,64)"/>
<path d="M0 0 C0.99 0 1.98 0 3 0 C3 2.64 3 5.28 3 8 C1.5 6.8125 1.5 6.8125 0 5 C-0.1875 2.3125 -0.1875 2.3125 0 0 Z " fill="#036CAC" transform="translate(160,58)"/>
<path d="M0 0 C1.32 0.33 2.64 0.66 4 1 C2.35 2.65 0.7 4.3 -1 6 C-1 5.01 -1 4.02 -1 3 C-1.66 2.67 -2.32 2.34 -3 2 C-2.01 2 -1.02 2 0 2 C0 1.34 0 0.68 0 0 Z " fill="#E3ECF6" transform="translate(92,57)"/>
<path d="M0 0 C0.99 0 1.98 0 3 0 C3.33 0.99 3.66 1.98 4 3 C2.68 3.99 1.36 4.98 0 6 C0 5.34 0 4.68 0 4 C-0.66 3.67 -1.32 3.34 -2 3 C-1.34 2.01 -0.68 1.02 0 0 Z " fill="#E6F0F4" transform="translate(136,16)"/>
<path d="M0 0 C1.32 0 2.64 0 4 0 C4 0.66 4 1.32 4 2 C4.99 2.33 5.98 2.66 7 3 C6.01 4.485 6.01 4.485 5 6 C3.35 4.02 1.7 2.04 0 0 Z " fill="#1A85C9" transform="translate(131,198)"/>
<path d="M0 0 C3.16115776 1.36983503 3.9927092 1.9890638 6 5 C5.01 5.33 4.02 5.66 3 6 C2.34 5.67 1.68 5.34 1 5 C0.375 2.4375 0.375 2.4375 0 0 Z " fill="#DEEEF8" transform="translate(90,162)"/>
<path d="M0 0 C3.62528568 -0.20140476 5.86501708 0.14223235 9 2 C8.34 2.66 7.68 3.32 7 4 C6.01 4 5.02 4 4 4 C4 3.34 4 2.68 4 2 C2.68 1.34 1.36 0.68 0 0 Z " fill="#0E69A2" transform="translate(96,108)"/>
<path d="M0 0 C1.98 1.65 3.96 3.3 6 5 C5.67 5.66 5.34 6.32 5 7 C1.535 5.02 1.535 5.02 -2 3 C-2 2.34 -2 1.68 -2 1 C-1.34 0.67 -0.68 0.34 0 0 Z " fill="#048DD9" transform="translate(15,88)"/>
<path d="M0 0 C0.33 0.99 0.66 1.98 1 3 C-1 6 -1 6 -3.625 6.6875 C-4.800625 6.8421875 -4.800625 6.8421875 -6 7 C-6 6.34 -6 5.68 -6 5 C-5.01 4.34 -4.02 3.68 -3 3 C-2.67 2.34 -2.34 1.68 -2 1 C-1.34 1.33 -0.68 1.66 0 2 C0 1.34 0 0.68 0 0 Z " fill="#077ABF" transform="translate(94,64)"/>
<path d="M0 0 C0.66 0.33 1.32 0.66 2 1 C1.67 2.65 1.34 4.3 1 6 C0.01 6.33 -0.98 6.66 -2 7 C-2 5.35 -2 3.7 -2 2 C-1.34 2 -0.68 2 0 2 C0 1.34 0 0.68 0 0 Z " fill="#0967A4" transform="translate(167,56)"/>
<path d="M0 0 C2.9375 0.8125 2.9375 0.8125 6 2 C6.33 2.99 6.66 3.98 7 5 C1.25 3.25 1.25 3.25 -1 1 C-0.67 0.67 -0.34 0.34 0 0 Z " fill="#DCF2F8" transform="translate(189,9)"/>
<path d="M0 0 C0.66 0 1.32 0 2 0 C2.625 1.8125 2.625 1.8125 3 4 C2.01 5.485 2.01 5.485 1 7 C0.34 5.02 -0.32 3.04 -1 1 C-0.67 0.67 -0.34 0.34 0 0 Z " fill="#087CCB" transform="translate(141,202)"/>
<path d="M0 0 C0 3 0 3 -1 6 C-2.65 6 -4.3 6 -6 6 C-4 4 -2 2 0 0 Z " fill="#DCEEF5" transform="translate(64,140)"/>
<path d="M0 0 C1.32 0 2.64 0 4 0 C4 1.32 4 2.64 4 4 C2.35 3.67 0.7 3.34 -1 3 C-0.67 2.01 -0.34 1.02 0 0 Z " fill="#0167A7" transform="translate(76,90)"/>
<path d="M0 0 C0.99 0 1.98 0 3 0 C3.33 1.32 3.66 2.64 4 4 C2.02 4.99 2.02 4.99 0 6 C0 4.02 0 2.04 0 0 Z " fill="#FAFAF2" transform="translate(8,90)"/>
<path d="M0 0 C0.66 0 1.32 0 2 0 C2 0.66 2 1.32 2 2 C2.66 2.33 3.32 2.66 4 3 C3.34 3 2.68 3 2 3 C2.33 3.99 2.66 4.98 3 6 C2.01 6.33 1.02 6.66 0 7 C0 4.69 0 2.38 0 0 Z " fill="#1176B3" transform="translate(163,58)"/>
<path d="M0 0 C2.64 0 5.28 0 8 0 C8 1.32 8 2.64 8 4 C2.25 2.25 2.25 2.25 0 0 Z " fill="#EEF6FB" transform="translate(203,17)"/>
</svg>
